<?xml version="1.0" standalone="no"?>
<!DOCTYPE svg PUBLIC "-//W3C//DTD SVG 20010904//EN"
 "http://www.w3.org/TR/2001/REC-SVG-20010904/DTD/svg10.dtd">
<svg version="1.0" xmlns="http://www.w3.org/2000/svg"
 width="1000.000000pt" height="1000.000000pt" viewBox="0 0 1000.000000 1000.000000"
 preserveAspectRatio="xMidYMid meet">
<metadata>
Created by potrace 1.11, written by Peter Selinger 2001-2013
</metadata>
<g transform="translate(0.000000,1000.000000) scale(0.100000,-0.100000)"
fill="#000000" stroke="none">
<path d="M3625 9574 c-93 -23 -196 -79 -259 -141 -31 -31 -56 -63 -56 -72 0
-9 176 -812 391 -1784 215 -973 389 -1770 387 -1772 -2 -1 -868 141 -1924 318
-1128 188 -1932 317 -1946 314 -41 -11 -122 -91 -156 -155 -78 -145 -82 -305
-12 -447 l29 -60 1870 -590 c1631 -515 1868 -592 1857 -605 -15 -17 -2307
-2955 -2348 -3010 -26 -34 -27 -38 -17 -105 15 -106 67 -205 153 -291 93 -92
162 -126 271 -131 l80 -5 1380 1381 c759 760 1383 1381 1386 1381 3 0 314
-757 690 -1681 683 -1679 684 -1682 719 -1698 25 -11 66 -15 140 -16 89 0 119
5 193 29 99 32 181 82 245 149 l44 45 -407 1772 c-223 975 -404 1775 -401
1778 6 5 84 -9 2081 -374 677 -124 1349 -247 1495 -274 l265 -48 49 26 c58 32
107 87 144 162 26 52 27 62 27 205 l0 150 -37 77 -36 77 -64 19 c-361 112
-3616 1136 -3625 1141 -7 4 434 579 1188 1549 845 1087 1199 1549 1199 1567 0
13 -5 48 -11 77 -38 182 -189 335 -363 367 -120 22 17 144 -1537 -1359 -772
-747 -1404 -1357 -1405 -1357 0 1 -304 763 -674 1694 l-673 1692 -49 11 c-68
14 -211 11 -283 -6z"/>
</g>
</svg>
