<?xml version="1.0" encoding="utf-8"?>
<!DOCTYPE svg PUBLIC "-//W3C//DTD SVG 1.1//EN" "http://www.w3.org/Graphics/SVG/1.1/DTD/svg11.dtd">
<svg version="1.1" id="Calque_1" xmlns="http://www.w3.org/2000/svg" xmlns:xlink="http://www.w3.org/1999/xlink" x="0px" y="0px"
	 width="1000px" height="1000px" viewBox="0 0 1000 1000" enable-background="new 0 0 1000 1000" xml:space="preserve">
<path d="M977.365,651.251c25.994-10.982,29.389-47.153,13.787-68.744L620.705,466.182l240.709-309.508
	c0.537-26.578-24.607-50.976-49.434-46.195L530.305,382.899L395.273,43.844c-22.812-7.476-52.304,1.694-64.083,20.005
	l78.821,356.658L23.535,356.109C0.185,366.347-6.599,400.723,8.782,422.095l373.974,118.134L143.944,846.29
	c-0.531,26.573,25.455,53.729,50.282,48.905l277.418-276.941l137.598,338.157c20.142,8.374,52.193-1.598,64.18-19.89L591.834,580.75
	L977.365,651.251z"/>
</svg>
